<svg width="73" height="21" viewBox="0 0 73 21" fill="none" xmlns="http://www.w3.org/2000/svg">
<path fill-rule="evenodd" clip-rule="evenodd" d="M12 2.5H8V6.5H4H0V10.5V14.5V18.5H4H8V14.5H12H16V10.5V6.5V2.5H12ZM4 14.5H8V10.5H12V6.5H8V10.5H4V14.5Z" fill="white"/>
<path d="M28.664 6.368V9.688H32.664V11.096H28.664V14.592H33.536V16H26.808V4.96H33.448L33.24 6.368H28.664ZM39.7298 4.16V13.696C39.7298 14.0853 39.8471 14.3627 40.0818 14.528C40.3218 14.688 40.6311 14.768 41.0098 14.768C41.2551 14.768 41.4871 14.7413 41.7058 14.688C41.9244 14.6347 42.1378 14.568 42.3458 14.488L42.8018 15.736C42.5511 15.864 42.2418 15.976 41.8738 16.072C41.5111 16.168 41.0951 16.216 40.6258 16.216C39.7778 16.216 39.1164 15.9787 38.6418 15.504C38.1724 15.024 37.9378 14.368 37.9378 13.536V5.48H35.3858V4.16H39.7298ZM50.2275 7.552V14.688H52.5235V16H45.9075V14.688H48.4355V8.864H45.9875V7.552H50.2275ZM48.9795 3.416C49.3315 3.416 49.6142 3.52267 49.8275 3.736C50.0462 3.94933 50.1555 4.216 50.1555 4.536C50.1555 4.856 50.0462 5.12533 49.8275 5.344C49.6142 5.56267 49.3315 5.672 48.9795 5.672C48.6382 5.672 48.3582 5.56267 48.1395 5.344C47.9208 5.12533 47.8115 4.856 47.8115 4.536C47.8115 4.216 47.9208 3.94933 48.1395 3.736C48.3582 3.52267 48.6382 3.416 48.9795 3.416ZM61.6613 13.928C61.6613 14.2587 61.7119 14.5013 61.8133 14.656C61.9146 14.8053 62.0773 14.9173 62.3013 14.992L61.9013 16.208C61.4853 16.16 61.1279 16.0453 60.8293 15.864C60.5306 15.6827 60.3039 15.408 60.1493 15.04C59.8399 15.4293 59.4479 15.7227 58.9733 15.92C58.4986 16.1173 57.9919 16.216 57.4533 16.216C56.5999 16.216 55.9226 15.976 55.4213 15.496C54.9253 15.0107 54.6773 14.376 54.6773 13.592C54.6773 12.7013 55.0239 12.016 55.7173 11.536C56.4106 11.056 57.4026 10.816 58.6933 10.816H59.9013V10.264C59.9013 9.72 59.7359 9.328 59.4053 9.088C59.0799 8.848 58.6186 8.728 58.0213 8.728C57.7439 8.728 57.4079 8.76533 57.0133 8.84C56.6186 8.90933 56.2053 9.01867 55.7733 9.168L55.3333 7.904C55.8613 7.70667 56.3786 7.56267 56.8853 7.472C57.3919 7.376 57.8613 7.328 58.2933 7.328C59.4239 7.328 60.2666 7.57867 60.8213 8.08C61.3813 8.58133 61.6613 9.27467 61.6613 10.16V13.928ZM57.9973 14.896C58.3599 14.896 58.7146 14.8 59.0613 14.608C59.4079 14.416 59.6879 14.1467 59.9013 13.8V11.936H58.9093C58.0666 11.936 57.4639 12.0773 57.1013 12.36C56.7386 12.6373 56.5573 13.0213 56.5573 13.512C56.5573 13.96 56.6773 14.304 56.9173 14.544C57.1626 14.7787 57.5226 14.896 57.9973 14.896ZM67.871 14.84C68.431 14.84 68.8763 14.7413 69.207 14.544C69.5377 14.3413 69.703 14.064 69.703 13.712C69.703 13.4827 69.655 13.288 69.559 13.128C69.463 12.9627 69.271 12.8133 68.983 12.68C68.695 12.5413 68.2577 12.3973 67.671 12.248C67.1163 12.104 66.6283 11.9333 66.207 11.736C65.791 11.5387 65.4683 11.2827 65.239 10.968C65.0097 10.6533 64.895 10.248 64.895 9.752C64.895 9.26667 65.031 8.84267 65.303 8.48C65.575 8.11733 65.9643 7.83467 66.471 7.632C66.983 7.42933 67.583 7.328 68.271 7.328C68.9803 7.328 69.599 7.42133 70.127 7.608C70.655 7.79467 71.1057 8.02667 71.479 8.304L70.727 9.432C70.3963 9.21333 70.0337 9.03467 69.639 8.896C69.2497 8.75733 68.8097 8.688 68.319 8.688C67.7483 8.688 67.3377 8.77333 67.087 8.944C66.8417 9.11467 66.719 9.34133 66.719 9.624C66.719 9.832 66.7803 10.008 66.903 10.152C67.031 10.2907 67.2497 10.4213 67.559 10.544C67.8683 10.6613 68.3057 10.8 68.871 10.96C69.4203 11.1093 69.8977 11.2853 70.303 11.488C70.7137 11.6907 71.031 11.96 71.255 12.296C71.4843 12.6267 71.599 13.0587 71.599 13.592C71.599 14.2 71.423 14.6987 71.071 15.088C70.7243 15.472 70.2657 15.7573 69.695 15.944C69.1297 16.1253 68.5217 16.216 67.871 16.216C67.087 16.216 66.4097 16.104 65.839 15.88C65.2683 15.6507 64.7883 15.3653 64.399 15.024L65.351 13.936C65.6817 14.2027 66.0603 14.4213 66.487 14.592C66.9137 14.7573 67.375 14.84 67.871 14.84Z" fill="white"/>
</svg>
